<mxfile host="app.diagrams.net" modified="2023-05-20T15:27:44.838Z" agent="Mozilla/5.0 (X11; Linux x86_64) AppleWebKit/537.36 (KHTML, like Gecko) Chrome/113.0.0.0 Safari/537.36" etag="_XfyCKg3Qs81fhv-vVws" version="21.3.0" type="github">
  <diagram name="Page-1" id="XuIpH6tI24n9b6IJmCxO">
    <mxGraphModel dx="1195" dy="696" grid="1" gridSize="10" guides="1" tooltips="1" connect="1" arrows="1" fold="1" page="1" pageScale="1" pageWidth="827" pageHeight="1169" math="0" shadow="0">
      <root>
        <mxCell id="0" />
        <mxCell id="1" parent="0" />
        <mxCell id="yYFLEdnjDPr8R14j7cF6-2" value="User Service" style="ellipse;whiteSpace=wrap;html=1;aspect=fixed;" vertex="1" parent="1">
          <mxGeometry x="369" y="380" width="90" height="90" as="geometry" />
        </mxCell>
        <mxCell id="yYFLEdnjDPr8R14j7cF6-4" style="edgeStyle=orthogonalEdgeStyle;rounded=0;orthogonalLoop=1;jettySize=auto;html=1;entryX=1;entryY=0.5;entryDx=0;entryDy=0;" edge="1" parent="1" source="yYFLEdnjDPr8R14j7cF6-3" target="yYFLEdnjDPr8R14j7cF6-2">
          <mxGeometry relative="1" as="geometry" />
        </mxCell>
        <mxCell id="yYFLEdnjDPr8R14j7cF6-5" value="Create Profile" style="edgeLabel;html=1;align=center;verticalAlign=middle;resizable=0;points=[];" vertex="1" connectable="0" parent="yYFLEdnjDPr8R14j7cF6-4">
          <mxGeometry x="-0.5833" y="3" relative="1" as="geometry">
            <mxPoint x="21" y="-3" as="offset" />
          </mxGeometry>
        </mxCell>
        <mxCell id="yYFLEdnjDPr8R14j7cF6-6" style="edgeStyle=orthogonalEdgeStyle;rounded=0;orthogonalLoop=1;jettySize=auto;html=1;entryX=1;entryY=0.5;entryDx=0;entryDy=0;" edge="1" parent="1" source="yYFLEdnjDPr8R14j7cF6-3" target="yYFLEdnjDPr8R14j7cF6-2">
          <mxGeometry relative="1" as="geometry">
            <Array as="points">
              <mxPoint x="790" y="425" />
            </Array>
          </mxGeometry>
        </mxCell>
        <mxCell id="yYFLEdnjDPr8R14j7cF6-7" value="Update Profile" style="edgeLabel;html=1;align=center;verticalAlign=middle;resizable=0;points=[];" vertex="1" connectable="0" parent="yYFLEdnjDPr8R14j7cF6-6">
          <mxGeometry x="0.1373" y="1" relative="1" as="geometry">
            <mxPoint x="30" y="-1" as="offset" />
          </mxGeometry>
        </mxCell>
        <mxCell id="yYFLEdnjDPr8R14j7cF6-8" style="edgeStyle=orthogonalEdgeStyle;rounded=0;orthogonalLoop=1;jettySize=auto;html=1;entryX=1;entryY=0.5;entryDx=0;entryDy=0;" edge="1" parent="1" source="yYFLEdnjDPr8R14j7cF6-3" target="yYFLEdnjDPr8R14j7cF6-2">
          <mxGeometry relative="1" as="geometry">
            <Array as="points">
              <mxPoint x="790" y="350" />
              <mxPoint x="595" y="350" />
              <mxPoint x="595" y="425" />
            </Array>
          </mxGeometry>
        </mxCell>
        <mxCell id="yYFLEdnjDPr8R14j7cF6-9" value="Authenticate" style="edgeLabel;html=1;align=center;verticalAlign=middle;resizable=0;points=[];" vertex="1" connectable="0" parent="yYFLEdnjDPr8R14j7cF6-8">
          <mxGeometry x="-0.2618" y="-1" relative="1" as="geometry">
            <mxPoint as="offset" />
          </mxGeometry>
        </mxCell>
        <mxCell id="yYFLEdnjDPr8R14j7cF6-3" value="User" style="rounded=0;whiteSpace=wrap;html=1;" vertex="1" parent="1">
          <mxGeometry x="730" y="487" width="120" height="60" as="geometry" />
        </mxCell>
        <mxCell id="yYFLEdnjDPr8R14j7cF6-17" style="edgeStyle=orthogonalEdgeStyle;rounded=0;orthogonalLoop=1;jettySize=auto;html=1;entryX=0.5;entryY=1;entryDx=0;entryDy=0;exitX=0;exitY=0.5;exitDx=0;exitDy=0;" edge="1" parent="1" target="yYFLEdnjDPr8R14j7cF6-23" source="yYFLEdnjDPr8R14j7cF6-2">
          <mxGeometry relative="1" as="geometry">
            <mxPoint x="339" y="379.5" as="sourcePoint" />
          </mxGeometry>
        </mxCell>
        <mxCell id="yYFLEdnjDPr8R14j7cF6-18" value="Request Identity&amp;nbsp;" style="edgeLabel;html=1;align=center;verticalAlign=middle;resizable=0;points=[];" vertex="1" connectable="0" parent="yYFLEdnjDPr8R14j7cF6-17">
          <mxGeometry x="-0.2585" y="-3" relative="1" as="geometry">
            <mxPoint x="20" y="3" as="offset" />
          </mxGeometry>
        </mxCell>
        <mxCell id="yYFLEdnjDPr8R14j7cF6-19" style="edgeStyle=orthogonalEdgeStyle;rounded=0;orthogonalLoop=1;jettySize=auto;html=1;entryX=0.5;entryY=1;entryDx=0;entryDy=0;exitX=0;exitY=0.5;exitDx=0;exitDy=0;" edge="1" parent="1" target="yYFLEdnjDPr8R14j7cF6-23" source="yYFLEdnjDPr8R14j7cF6-2">
          <mxGeometry relative="1" as="geometry">
            <mxPoint x="384" y="334.5" as="sourcePoint" />
            <Array as="points">
              <mxPoint x="360" y="425" />
              <mxPoint x="360" y="325" />
              <mxPoint x="180" y="325" />
            </Array>
          </mxGeometry>
        </mxCell>
        <mxCell id="yYFLEdnjDPr8R14j7cF6-20" value="Verify Identity" style="edgeLabel;html=1;align=center;verticalAlign=middle;resizable=0;points=[];" vertex="1" connectable="0" parent="yYFLEdnjDPr8R14j7cF6-19">
          <mxGeometry x="-0.1395" y="-3" relative="1" as="geometry">
            <mxPoint x="-16" y="3" as="offset" />
          </mxGeometry>
        </mxCell>
        <mxCell id="yYFLEdnjDPr8R14j7cF6-21" style="edgeStyle=orthogonalEdgeStyle;rounded=0;orthogonalLoop=1;jettySize=auto;html=1;entryX=0.5;entryY=0;entryDx=0;entryDy=0;" edge="1" parent="1" source="yYFLEdnjDPr8R14j7cF6-23" target="yYFLEdnjDPr8R14j7cF6-2">
          <mxGeometry relative="1" as="geometry">
            <mxPoint x="384" y="334.5" as="targetPoint" />
          </mxGeometry>
        </mxCell>
        <mxCell id="yYFLEdnjDPr8R14j7cF6-22" value="User Identity" style="edgeLabel;html=1;align=center;verticalAlign=middle;resizable=0;points=[];" vertex="1" connectable="0" parent="yYFLEdnjDPr8R14j7cF6-21">
          <mxGeometry x="-0.4066" y="2" relative="1" as="geometry">
            <mxPoint x="-8" y="2" as="offset" />
          </mxGeometry>
        </mxCell>
        <mxCell id="yYFLEdnjDPr8R14j7cF6-23" value="Identity Providers" style="rounded=0;whiteSpace=wrap;html=1;" vertex="1" parent="1">
          <mxGeometry x="120" y="194.5" width="120" height="60" as="geometry" />
        </mxCell>
      </root>
    </mxGraphModel>
  </diagram>
</mxfile>
